name D:\school\WTK\thesis\model\3dpredictsim\Results\MidTarsalJoint\Fal_s1_bCst_PF_Natali2010_ls150_MT_k250_d010_MTP_T5_ig24.mot
datacolumns 128
datarows 4
range 0.00000000 0.03423612
endheader
time	pelvis_tilt	pelvis_list	pelvis_rotation	pelvis_tx	pelvis_ty	pelvis_tz	hip_flexion_l	hip_adduction_l	hip_rotation_l	hip_flexion_r	hip_adduction_r	hip_rotation_r	knee_angle_l	knee_angle_r	ankle_angle_l	ankle_angle_r	subtalar_angle_l	subtalar_angle_r	mtj_angle_l	mtj_angle_r	mtp_angle_l	mtp_angle_r	lumbar_extension	lumbar_bending	lumbar_rotation	arm_flex_l	arm_add_l	arm_rot_l	arm_flex_r	arm_add_r	arm_rot_r	elbow_flex_l	elbow_flex_r	pro_sup_l	pro_sup_r	glut_med1_l/activation	glut_med2_l/activation	glut_med3_l/activation	glut_min1_l/activation	glut_min2_l/activation	glut_min3_l/activation	semimem_l/activation	semiten_l/activation	bifemlh_l/activation	bifemsh_l/activation	sar_l/activation	add_long_l/activation	add_brev_l/activation	add_mag1_l/activation	add_mag2_l/activation	add_mag3_l/activation	tfl_l/activation	pect_l/activation	grac_l/activation	glut_max1_l/activation	glut_max2_l/activation	glut_max3_l/activation	iliacus_l/activation	psoas_l/activation	quad_fem_l/activation	gem_l/activation	peri_l/activation	rect_fem_l/activation	vas_med_l/activation	vas_int_l/activation	vas_lat_l/activation	med_gas_l/activation	lat_gas_l/activation	soleus_l/activation	tib_post_l/activation	flex_dig_l/activation	flex_hal_l/activation	tib_ant_l/activation	per_brev_l/activation	per_long_l/activation	per_tert_l/activation	ext_dig_l/activation	ext_hal_l/activation	ercspn_l/activation	intobl_l/activation	extobl_l/activation	glut_med1_r/activation	glut_med2_r/activation	glut_med3_r/activation	glut_min1_r/activation	glut_min2_r/activation	glut_min3_r/activation	semimem_r/activation	semiten_r/activation	bifemlh_r/activation	bifemsh_r/activation	sar_r/activation	add_long_r/activation	add_brev_r/activation	add_mag1_r/activation	add_mag2_r/activation	add_mag3_r/activation	tfl_r/activation	pect_r/activation	grac_r/activation	glut_max1_r/activation	glut_max2_r/activation	glut_max3_r/activation	iliacus_r/activation	psoas_r/activation	quad_fem_r/activation	gem_r/activation	peri_r/activation	rect_fem_r/activation	vas_med_r/activation	vas_int_r/activation	vas_lat_r/activation	med_gas_r/activation	lat_gas_r/activation	soleus_r/activation	tib_post_r/activation	flex_dig_r/activation	flex_hal_r/activation	tib_ant_r/activation	per_brev_r/activation	per_long_r/activation	per_tert_r/activation	ext_dig_r/activation	ext_hal_r/activation	ercspn_r/activation	intobl_r/activation	extobl_r/activation	
          0.00000000	         -2.93006607	         -2.17600677	          5.47429216	          0.00000000	          0.91939494	         -0.00151881	        -16.49335048	         -1.24717695	          7.17694935	         29.57031110	          3.39899314	         -2.08024493	         -8.98455764	        -12.03011665	         -2.83276695	          4.94196821	         10.43446993	         -3.21537850	          5.53295590	         -0.04207246	         10.32934683	         -0.84333794	         -2.03348097	          0.38163910	         -1.97099122	          4.30011908	        -13.45510779	         15.13808390	         -5.20903842	        -13.45335082	          5.67620230	         36.55390219	         17.24608054	         86.51662706	         86.51662706	          0.32127148	          0.10033751	          0.07621301	          0.31107535	          0.21247326	          0.10524093	          0.05000130	          0.05000024	          0.05000015	          0.05963185	          0.10549888	          0.05000014	          0.05000012	          0.05000016	          0.05000045	          0.05000041	          0.30872611	          0.05000057	          0.05000030	          0.05000536	          0.05000226	          0.05000077	          0.38311202	          0.58584129	          0.05000009	          0.05000041	          0.05000023	          0.21309780	          0.05000061	          0.05000038	          0.05000035	          0.28812981	          0.39112295	          0.34630205	          0.26360138	          0.24530316	          0.32897478	          0.05000005	          0.05951090	          0.15262622	          0.05000034	          0.05000009	          0.05000030	          0.05000000	          0.05000001	          0.05000006	          0.05951014	          0.05000062	          0.05950992	          0.05000027	          0.05000034	          0.05000149	          0.06311584	          0.05951051	          0.20109555	          0.05000048	          0.05000035	          0.11876889	          0.22784960	          0.18391560	          0.16628050	          0.10246697	          0.05950988	          0.05001037	          0.11249795	          0.06412564	          0.07082908	          0.10186842	          0.05000007	          0.05000008	          0.20102083	          0.05000522	          0.05000053	          0.05000011	          0.09019889	          0.09212125	          0.07692428	          0.05628636	          0.05000164	          0.05950994	          0.05000008	          0.05000052	          0.05000048	          0.48435217	          0.23899742	          0.17285402	          0.15676415	          0.46956291	          0.05000025	          0.05516860	          0.12237986	          0.10444588	
          0.01141204	         -2.92852801	         -2.26053397	          5.73129775	          0.01722736	          0.91847389	         -0.00131382	        -16.37608765	         -1.54185366	          6.98766429	         28.90135371	          3.79741603	         -1.89426298	        -10.86147890	        -11.91437382	         -3.41324712	          4.32767087	         11.46723277	         -3.60682484	          4.58006016	         -0.02445351	         12.09057178	         -0.85329756	         -1.83808995	          0.58672876	         -2.04882127	          4.01016020	        -13.46837718	         15.51503835	         -6.08987527	        -13.45113032	          5.38666304	         37.69151276	         16.87346284	         86.51662706	         86.51662706	          0.26993059	          0.08430304	          0.06403396	          0.26136390	          0.17851892	          0.08842290	          0.05000230	          0.05000042	          0.05000056	          0.05010243	          0.08863985	          0.11537167	          0.08998092	          0.06136292	          0.05001056	          0.05000278	          0.25939012	          0.09931187	          0.05059206	          0.05000261	          0.05000163	          0.05000170	          0.32188868	          0.53435252	          0.05856824	          0.05954102	          0.05951023	          0.17904366	          0.05000669	          0.16870263	          0.15196489	          0.24208508	          0.32861937	          0.29421405	          0.22147693	          0.20610286	          0.27640333	          0.05000002	          0.05000090	          0.14367328	          0.05000011	          0.05000002	          0.05000014	          0.05000017	          0.07082894	          0.06077841	          0.05000020	          0.05000021	          0.05000026	          0.05000038	          0.05000038	          0.05000029	          0.05302961	          0.05000047	          0.16918882	          0.05000037	          0.05950891	          0.10033674	          0.22876359	          0.29616193	          0.19822165	          0.08736655	          0.05000016	          0.05854989	          0.09452062	          0.05387828	          0.05951032	          0.11801105	          0.05311313	          0.05828243	          0.54624133	          0.14216866	          0.10426130	          0.07082908	          0.19923866	          0.19971608	          0.17068014	          0.05000001	          0.05000004	          0.05000000	          0.05000123	          0.05000122	          0.05000174	          0.55373593	          0.20080440	          0.19510053	          0.33872859	          0.49624796	          0.07231552	          0.05000002	          0.10282288	          0.08775486	
          0.02282408	         -2.92287529	         -2.34778816	          5.95892237	          0.03479083	          0.91756113	         -0.00113713	        -16.20170598	         -1.83445416	          6.78941606	         28.09860703	          4.10921045	         -1.64155721	        -12.82119110	        -12.23709299	         -4.13159975	          3.77939185	         12.45445301	         -4.02167894	          3.46327317	         -0.19468424	         13.95021489	         -0.86953769	         -1.61975633	          0.80405234	         -2.11478623	          3.63847663	        -13.47910868	         15.81819686	         -7.00229472	        -13.45825558	          5.15968148	         38.81074634	         16.54583725	         86.51662706	         86.51662706	          0.36093490	          0.07083097	          0.05380108	          0.21959671	          0.14999068	          0.07429246	          0.05000219	          0.05000058	          0.05000041	          0.05000014	          0.07447497	          0.14391048	          0.08642786	          0.05951050	          0.05950845	          0.05950545	          0.21793852	          0.08360868	          0.05037748	          0.05009267	          0.05556235	          0.05950918	          0.27045024	          0.51445952	          0.05950990	          0.05002653	          0.05000021	          0.15043151	          0.07763933	          0.14174321	          0.12768021	          0.20339854	          0.27610418	          0.24719701	          0.18608372	          0.17316659	          0.23223265	          0.05000014	          0.05000045	          0.18495817	          0.05000019	          0.05034124	          0.05000038	          0.05376782	          0.05951009	          0.05951008	          0.30158011	          0.05000020	          0.21765778	          0.05000082	          0.05000041	          0.28500639	          0.07675541	          0.08141419	          0.15193115	          0.05000014	          0.05000035	          0.08430252	          0.20744320	          0.24883377	          0.16654525	          0.12092908	          0.05000101	          0.05951497	          0.11639452	          0.05000014	          0.05000034	          0.09915233	          0.05863279	          0.05000123	          0.45894896	          0.11944938	          0.15852583	          0.05951021	          0.16739930	          0.16780044	          0.14340457	          0.05938579	          0.05950941	          0.05950991	          0.05000010	          0.05000052	          0.05000055	          0.53903666	          0.32407530	          0.16392247	          0.30080837	          0.53103079	          0.06075912	          0.05000002	          0.11019360	          0.07373115	
          0.03423612	         -2.91494686	         -2.43744202	          6.15139750	          0.05249513	          0.91668381	         -0.00095512	        -15.93412461	         -2.12083163	          6.59384955	         27.19010067	          4.36878374	         -1.38325910	        -14.90698924	        -12.55272788	         -4.98143827	          3.28398603	         13.38535978	         -4.43858791	          2.22252997	         -0.18918966	         15.79406116	         -0.82838492	         -1.39830392	          1.03123050	         -2.17067029	          3.21489115	        -13.49240147	         16.06165880	         -7.90041475	        -13.47168136	          5.00928755	         39.89856576	         16.23695053	         86.51662706	         86.51662706	          0.30325628	          0.05951181	          0.05000003	          0.30771631	          0.12602143	          0.06242016	          0.05000195	          0.05000014	          0.05000011	          0.05000026	          0.06257448	          0.13294461	          0.07261642	          0.05000073	          0.05000070	          0.05000036	          0.18311238	          0.07085155	          0.05000038	          0.05000069	          0.05000040	          0.05000028	          0.22723088	          0.47085458	          0.05000005	          0.05000027	          0.05000018	          0.12639175	          0.07988892	          0.11941724	          0.11941770	          0.17089433	          0.23198122	          0.20769356	          0.15634654	          0.14549373	          0.19512067	          0.10382027	          0.14290949	          0.16220108	          0.05000107	          0.13186133	          0.05000081	          0.07504447	          0.05000005	          0.05000006	          0.35418667	          0.28648959	          0.32939747	          0.10294533	          0.22236294	          0.23946111	          0.06448958	          0.08712061	          0.12765176	          0.07082903	          0.05000116	          0.07083054	          0.17429266	          0.20906895	          0.13993096	          0.14870903	          0.05000027	          0.05000446	          0.09779446	          0.21338409	          0.15985572	          0.12941470	          0.05000006	          0.05000007	          0.38560642	          0.10036086	          0.13319275	          0.05000018	          0.14064976	          0.16454338	          0.12048848	          0.05000006	          0.05000010	          0.05000001	          0.05000001	          0.05000009	          0.05000010	          0.61104019	          0.29667794	          0.16129337	          0.57120610	          0.56075050	          0.23937106	          0.07427371	          0.09258408	          0.06194851	
